inDegrees=no
num_controls=7
num_derivatives=13
num_iterations=85
num_multipliers=7
num_parameters=0
num_slacks=7
num_states=26
objective=0.334179
objective_accelerations=0.037090
objective_balance=0.001332
objective_effort=0.027132
objective_height=0.267162
objective_ligament=0.001464
solver_duration=903.570653
status=Solve_Succeeded
success=true
DataType=double
version=3
OpenSimVersion=4.5
endheader
time	/jointset/ground_pelvis/pelvis_tilt/value	/jointset/ground_pelvis/pelvis_tx/value	/jointset/ground_pelvis/pelvis_ty/value	/jointset/hip_r/hip_flexion_r/value	/jointset/hip_r/hip_adduction_r/value	/jointset/hip_r/hip_rotation_r/value	/jointset/back/lumbar_extension/value	/jointset/patellofemoral_r/patellar_flexion_r/value	/jointset/knee_r/knee_flexion_r/value	/jointset/knee_r/knee_adduction_r/value	/jointset/knee_r/knee_rotation_r/value	/jointset/ankle_r/ankle_angle_r/value	/jointset/subtalar_r/subtalar_angle_r/value	/jointset/ground_pelvis/pelvis_tilt/speed	/jointset/ground_pelvis/pelvis_tx/speed	/jointset/ground_pelvis/pelvis_ty/speed	/jointset/hip_r/hip_flexion_r/speed	/jointset/hip_r/hip_adduction_r/speed	/jointset/hip_r/hip_rotation_r/speed	/jointset/back/lumbar_extension/speed	/jointset/patellofemoral_r/patellar_flexion_r/speed	/jointset/knee_r/knee_flexion_r/speed	/jointset/knee_r/knee_adduction_r/speed	/jointset/knee_r/knee_rotation_r/speed	/jointset/ankle_r/ankle_angle_r/speed	/jointset/subtalar_r/subtalar_angle_r/speed	/forceset/tau_hip_flexion_r	/forceset/tau_hip_adduction_r	/forceset/tau_hip_rotation_r	/forceset/tau_knee_flexion_r	/forceset/tau_ankle_angle_r	/forceset/tau_subtalar_angle_r	/forceset/tau_lumbar_extension	lambda_cid13_p0	lambda_cid14_p0	lambda_cid14_p1	lambda_cid14_p2	lambda_cid14_p3	lambda_cid14_p4	lambda_cid14_p5	/jointset/ground_pelvis/pelvis_tilt/accel	/jointset/ground_pelvis/pelvis_tx/accel	/jointset/ground_pelvis/pelvis_ty/accel	/jointset/hip_r/hip_flexion_r/accel	/jointset/hip_r/hip_adduction_r/accel	/jointset/hip_r/hip_rotation_r/accel	/jointset/back/lumbar_extension/accel	/jointset/patellofemoral_r/patellar_flexion_r/accel	/jointset/knee_r/knee_flexion_r/accel	/jointset/knee_r/knee_adduction_r/accel	/jointset/knee_r/knee_rotation_r/accel	/jointset/ankle_r/ankle_angle_r/accel	/jointset/subtalar_r/subtalar_angle_r/accel	gamma_cid13_p0	gamma_cid14_p0	gamma_cid14_p1	gamma_cid14_p2	gamma_cid14_p3	gamma_cid14_p4	gamma_cid14_p5
1	-0.2806496932727582	-0.00849589829360755	0.6325162472334206	1.469240016258317	-0.2379247967175148	-0.08843164732942903	-0.7853938916292937	1.505361834869587	1.505361834869634	-0.1744558692745242	0.1735078200370373	0.4362509735608298	0.1765345328792539	0.06972218171710874	0.006241180650970459	0.01718111410137996	-0.1050799974984557	-0.00160856625906691	0.004505573315020199	-0.0004143712210315924	-0.02127329150960703	-0.02127329150960698	0.01287472839446695	0.0001468609734864581	0.0130200263692827	0.003574905852685616	-0.3615201321883745	0.04265170000089059	0.007391510578794623	-0.4306036106629405	-0.04725519597612529	0.003474481615185364	0.3720417132978011	-0.04107676373040065	-66.98422559655903	-14.31013547528812	7.375866957574519	7.943291046478547	-770.3508954179179	57.17269899491242	1.428923386059289	0.1654737809553319	1.824801269297963	-5.585443317454867	0.2221877420140399	-0.3222860532708072	-0.04484148341959998	-4.958095528013737	-4.958095528013603	0.9898495483608115	0.009663450779781285	-0.9859661974765327	-0.08162683342577365	1.493068179533776e-09	-7.970484454260868e-10	1.383848925430557e-08	1.156240079643622e-08	3.616130737176021e-09	-7.389142379589712e-09	2.607606017884589e-08
1.01	-0.2798819019349211	-0.008425072225925418	0.6327792297136614	1.467910693918124	-0.2379299988136858	-0.08840000430424427	-0.7853981556184784	1.504901441198301	1.504901441198339	-0.1742745937271273	0.1735097920846947	0.43633192423801	0.1765657309870403	0.08381658361791974	0.007941968526556025	0.0354213196576216	-0.1608015581565277	0.0005517347795064154	0.001839979900338348	-0.0003041493794549158	-0.07082379727534205	-0.07082379727534094	0.02342757199618008	0.0002755750234566393	0.003181473521980148	0.002638976663462564	-0.3621754496979338	0.04270837426694032	0.00749010540046601	-0.430828305744935	-0.04731352268062235	0.003430028443847571	0.3729968126647592	-0.04107773962027816	-67.04913143480506	-14.34642424122658	7.38806994049117	7.722759082489241	-771.1317715798085	57.1789359625592	1.396775349822235	0.1750720932190489	1.824517754854258	-5.56807381826776	0.2104955140588091	-0.2361514651783678	0.05909561123169497	-4.956282417085577	-4.95628241708547	1.095080898062267	0.01869222643839045	-0.9810961780455598	-0.1034239564316477	5.643477109858458e-09	4.761948274570509e-09	4.72755820364329e-08	4.498607096196165e-08	2.294108427513422e-09	-1.542166958757884e-08	9.051994225894407e-08
1.02	-0.2789737512265281	-0.008336700119015715	0.633224791760678	1.466023643695698	-0.237914089053615	-0.0883945083091297	-0.7853972890711513	1.503944991606112	1.503944991606138	-0.173986373917315	0.1735138946417158	0.4363148301168224	0.176586800203982	0.09779405582793811	0.009750388496484937	0.0536970274565448	-0.2166255739459777	0.002613804989275317	-0.0007238326988030752	0.000611736193531902	-0.1204844756903652	-0.1204844756903617	0.0342635808773219	0.0005729628467356974	-0.006588933312859736	0.001549127683797707	-0.3628307672074777	0.04276504853298501	0.007588700222136486	-0.4310530008269286	-0.04737184938512284	0.003385575272498599	0.3739519120317328	-0.04108491889591435	-67.12104765309158	-14.37834018743339	7.393178477988371	7.499144823996162	-772.0347445204758	57.22418585694937	1.405537447900751	0.1870001998240159	1.831901717834278	-5.605934343730461	0.2025415762531515	-0.3019298901627255	0.1162912628622145	-4.980130057871357	-4.980130057870959	1.046482604246544	0.04339820544155593	-0.9723369949839683	-0.1124107915141246	1.211592100141859e-08	1.476654287075699e-08	7.501081267421253e-08	9.312675421806125e-08	-4.232874721614891e-09	-2.110278154659522e-08	1.661652764186271e-07
1.03	-0.2779267519782792	-0.008229772160948053	0.6338531631420036	1.463578485634727	-0.2378778539184187	-0.08841426960961156	-0.7853826534846964	1.502491426141795	1.502491426141824	-0.1735888039707401	0.1735213849362708	0.4362001551520356	0.1765964625721378	0.1115508514416039	0.01164660936357746	0.07197061594170358	-0.2723576636781926	0.004636582142111539	-0.003222859688858182	0.002509586876386351	-0.1702430077200059	-0.1702430077199995	0.04525624481259304	0.0009094285373357697	-0.01635647599220969	0.0003840907357078826	-0.3635698145520451	0.04291159513229723	0.007699906159396343	-0.4305767070847609	-0.04818351826255431	0.003402038501009521	0.3749728134596414	-0.04110652559291146	-67.4160676939827	-14.40067998675148	7.37142127221146	7.556262447043419	-772.6496400082733	57.21724852505874	1.35251475824368	0.1926417646459735	1.824087097558761	-5.549585004681233	0.202668003951021	-0.2230417144895245	0.2556628362369383	-4.975877119341821	-4.975877119341585	1.126529733625141	0.02645839035243637	-0.9805251791768445	-0.1184054556866525	1.861205912727706e-08	2.481650071057809e-08	1.026878610452131e-07	1.41417611077126e-07	-1.081296971604391e-08	-2.67598994724588e-08	2.419249111097345e-07
1.04	-0.2767438319458645	-0.008103540247310678	0.6346640703449213	1.460577458933095	-0.2378212865678632	-0.08845885170221231	-0.7853432132182797	1.500539842888415	1.500539842888445	-0.1730811330957178	0.1735317774156219	0.4359874923054982	0.1765945035089665	0.124978212661038	0.01361117961042739	0.09020419177494969	-0.3277993020789758	0.006680248061039781	-0.005687991121418341	0.005572672168835583	-0.2200880335029031	-0.2200880335028935	0.05628376656617502	0.001153399807263064	-0.02618650966221359	-0.0007751585815910369	-0.364308861896597	0.04305814173159474	0.007811112096650955	-0.4301004133425932	-0.04899518713999248	0.003418501729489429	0.3759937148875641	-0.04113444642525381	-67.71819724309984	-14.41851685651735	7.342380404561886	7.608803632419326	-773.3898820052549	57.24980201247774	1.339650569054396	0.2006700757754944	1.823899187451741	-5.547844077444105	0.2067193294715579	-0.2951507786637346	0.349338184781055	-4.997428808522654	-4.997428808522186	1.05345416790871	0.02489932130699594	-0.9848351931147656	-0.1112532653559427	2.311657560577405e-08	3.233715142850838e-08	1.336852921010897e-07	1.787988138394934e-07	-1.578415407124771e-08	-3.275949091596354e-08	3.062152959729076e-07
1.05	-0.2754280160648496	-0.007957278980977681	0.6356570656047773	1.457023307473166	-0.2377443207557727	-0.08852791142762542	-0.7852675406929547	1.498089512928611	1.49808951292862	-0.1724628429205466	0.1735444178288971	0.4356762060827888	0.1765807071994292	0.1381545900147731	0.01565667863697644	0.1083833070599758	-0.382996561642493	0.00870231961453124	-0.008112057424334436	0.009736554745458537	-0.2699787738628264	-0.2699787738627948	0.06740284306043892	0.001384796122882127	-0.0360824717618829	-0.002010358995804977	-0.3647929807761991	0.0431715013097312	0.00797657545446942	-0.4293271470796765	-0.04972987400594588	0.003418102358859617	0.3768273622103955	-0.04116842734311631	-67.97091937033244	-14.43245411562597	7.309780255243852	7.625315250968612	-773.7571364465839	57.23646675811981	1.302083658241718	0.2088263724736409	1.813176913918723	-5.500494808006771	0.1983898749813675	-0.214232648774503	0.4761215715381923	-4.985024517117211	-4.985024517114249	1.14541599238248	0.02383462871297407	-0.9937370286205366	-0.1335402287713662	2.755885390779101e-08	3.97787612988796e-08	1.647864851158686e-07	2.158390899113391e-07	-2.070505996897573e-08	-3.876978465689456e-08	3.701472667789579e-07
1.06	-0.2739813459423561	-0.007790095413103431	0.6368315038604616	1.452918217835166	-0.2376474464668089	-0.08862085143459689	-0.7851449876863779	1.49514024999173	1.495140249991713	-0.1717325056599926	0.1735596871737361	0.4352656081770353	0.1765537815258863	0.151149060956855	0.01779563991867818	0.1264927909406373	-0.437986937694059	0.01066194343575819	-0.01046404743400747	0.01494876841949373	-0.3198746289183518	-0.3198746289183024	0.07869318364259228	0.001679186119443816	-0.04604884627065357	-0.003401031382707212	-0.36527709965578	0.04328486088787672	0.008142038812271338	-0.4285538808167608	-0.05046456087190001	0.003417702988246871	0.3776610095332469	-0.04120893053947371	-68.23092105367412	-14.44184186769529	7.269801830089047	7.636727525110972	-774.2533067955851	57.26282384162074	1.303269286723738	0.2193625268060253	1.809972906578821	-5.506467375053869	0.1942297830186607	-0.2807355200151183	0.5590044042635095	-4.998451747643048	-4.998451747643427	1.087706985486597	0.03749805749551503	-0.9989176749350523	-0.1423476598936018	3.238120010245831e-08	4.729934667585193e-08	1.908018734263106e-07	2.547806576426667e-07	-2.545579549947956e-08	-4.366067423441796e-08	4.306778055084575e-07
1.07	-0.2724057394290301	-0.007601039507970679	0.6381865878955741	1.448264549939323	-0.2375312728344741	-0.08873714266520921	-0.7849650041997283	1.49169212756385	1.491692127563812	-0.1708886696331448	0.1735781544643446	0.4347549438238585	0.1765121823412222	0.1639293025565585	0.02003267873359792	0.1445021719952655	-0.4926806494943861	0.01256443957780263	-0.01279231408723998	0.02123262894200343	-0.3697379211647157	-0.3697379211646589	0.09008485512681587	0.002016085268335844	-0.05610087064714511	-0.004942843439350983	-0.3653336765799935	0.04335460494304904	0.008362671223472803	-0.4275543568557842	-0.05097907328165627	0.003396448197165581	0.3781674364124485	-0.04125719231946839	-68.38997613052415	-14.44147407805112	7.226968629281895	7.596067167390955	-774.2821033272367	57.25983920330862	1.258971853346157	0.228439096116475	1.793134325188886	-5.440913753384564	0.1870462124333901	-0.2085650330376761	0.6907818809789819	-4.978485152431865	-4.978485152430559	1.166515544728744	0.0321359707651045	-1.0108710832189	-0.1636347504753852	3.722376267439425e-08	5.482413287764348e-08	2.16546740209926e-07	2.93823357909073e-07	-3.01974794147055e-08	-4.849202103729201e-08	4.910274169998427e-07
